<?xml version="1.0" encoding="UTF-8"?><svg id="Calque_2" xmlns="http://www.w3.org/2000/svg" viewBox="0 0 1649.48 1649.48"><defs><style>.cls-1{opacity:.3;}.cls-2{fill:#fdf0d5;fill-rule:evenodd;}.cls-2,.cls-3,.cls-4,.cls-5,.cls-6,.cls-7,.cls-8,.cls-9{stroke-width:0px;}.cls-3{fill:#777da7;}.cls-4{fill:#393b50;}.cls-5{fill:#5a5f7c;}.cls-6{fill:#231f20;}.cls-7{fill:#1f315e;}.cls-8{fill:#d5dfeb;}.cls-9{fill:#ce6c47;}</style></defs><g id="mascot"><path class="cls-2" d="M824.74,0c455.49,0,824.74,369.25,824.74,824.74s-369.25,824.74-824.74,824.74S0,1280.24,0,824.74,369.25,0,824.74,0h0Z"/><path class="cls-3" d="M531.14,538.88v63.72c0,36.66,29.7,66.32,66.32,66.32h476.83c36.62,0,66.32-29.66,66.32-66.32v-303.57c0-36.62-29.7-66.32-66.32-66.32h-476.83c-36.62,0-66.32,29.7-66.32,66.32v63.76"/><path class="cls-7" d="M1081.64,390.61v184.05c0,15.35-12.47,27.82-27.82,27.82h-435.89c-15.35,0-27.82-12.47-27.82-27.82v-184.05c0-15.39,12.47-27.82,27.82-27.82h435.89c15.35,0,27.82,12.43,27.82,27.82Z"/><path class="cls-7" d="M922.45,1619.07c0,3.12-2.1,6.13-5.79,8.91-12.54,9.31-43.99,15.95-80.77,15.95s-68.28-6.64-80.77-15.95c-3.75-2.78-5.79-5.79-5.79-8.91,0-2.38,1.13-4.65,3.29-6.75.68-.79,1.53-1.48,2.5-2.16v-31.84c12.49,9.31,43.99,15.95,80.77,15.95s68.22-6.64,80.77-15.95v31.84c.91.68,1.76,1.42,2.55,2.16,2.1,2.16,3.24,4.37,3.24,6.75Z"/><path class="cls-7" d="M922.45,1569.4c0,3.12-2.1,6.19-5.79,8.91-12.54,9.31-43.99,15.95-80.77,15.95s-68.28-6.64-80.77-15.95c-3.75-2.72-5.79-5.79-5.79-8.91,0-2.38,1.13-4.65,3.29-6.7.68-.79,1.53-1.53,2.5-2.21v-31.84c12.49,9.36,43.99,15.95,80.77,15.95s68.22-6.58,80.77-15.95v31.84c.91.68,1.76,1.42,2.55,2.21,2.1,2.1,3.24,4.31,3.24,6.7Z"/><path class="cls-8" d="M755.1,1347.51v14.33c-.96.74-1.81,1.41-2.48,2.18-2.15,2.07-3.29,4.37-3.29,6.7,0,3.15,2.04,6.18,5.77,9h.04v.04c.37.26.78.56,1.18.81,13.22,8.85,43.9,15.03,79.59,15.03s68.22-6.59,80.74-15.88c3.66-2.81,5.77-5.85,5.77-9,0-2.33-1.15-4.59-3.22-6.7-.81-.7-1.67-1.44-2.55-2.18v-14.33"/><path class="cls-7" d="M922.45,1420.41c0,3.12-2.1,6.19-5.79,8.97-12.54,9.31-43.99,15.89-80.77,15.89s-68.28-6.58-80.77-15.89c-3.75-2.78-5.79-5.85-5.79-8.97,0-2.33,1.13-4.65,3.29-6.7.68-.79,1.53-1.48,2.5-2.21v-31.78c12.49,9.31,43.99,15.89,80.77,15.89s68.22-6.58,80.77-15.89v31.78c.91.74,1.76,1.48,2.55,2.21,2.1,2.1,3.24,4.37,3.24,6.7Z"/><path class="cls-7" d="M922.45,1470.08c0,3.12-2.1,6.19-5.79,8.91-12.54,9.36-43.99,15.95-80.77,15.95s-68.28-6.58-80.77-15.95c-3.75-2.72-5.79-5.79-5.79-8.91,0-2.33,1.13-4.65,3.29-6.7.68-.79,1.53-1.53,2.5-2.21v-31.78c12.49,9.31,43.99,15.89,80.77,15.89s68.22-6.58,80.77-15.89v31.78c.91.68,1.76,1.47,2.55,2.21,2.1,2.1,3.24,4.37,3.24,6.7Z"/><path class="cls-7" d="M922.45,1519.74c0,3.12-2.1,6.19-5.79,8.91-12.54,9.36-43.99,15.95-80.77,15.95s-68.28-6.58-80.77-15.95c-3.75-2.72-5.79-5.79-5.79-8.91,0-2.33,1.13-4.65,3.29-6.7.68-.79,1.53-1.53,2.5-2.21v-31.84c12.49,9.36,43.99,15.95,80.77,15.95s68.22-6.58,80.77-15.95v31.84c.91.68,1.76,1.48,2.55,2.21,2.1,2.1,3.24,4.37,3.24,6.7Z"/><g class="cls-1"><path class="cls-4" d="M916.65,1361.84v-.46c-12.51,9.29-43.98,15.88-80.74,15.88s-66.37-6.18-79.59-15.03c-.41-.26-.81-.56-1.18-.81v-.04h-.04v.46c-.96.74-1.81,1.41-2.48,2.18-2.15,2.07-3.29,4.37-3.29,6.7,0,3.15,2.04,6.18,5.77,9h.04v.04c.37.26.78.56,1.18.81,13.22,8.85,43.9,15.03,79.59,15.03s68.22-6.59,80.74-15.88c3.66-2.81,5.77-5.85,5.77-9,0-2.33-1.15-4.59-3.22-6.7-.81-.7-1.67-1.44-2.55-2.18Z"/></g><path class="cls-6" d="M835.9,1649.48c-37.18,0-70.19-6.69-84.08-17.05-5.32-3.95-8.02-8.44-8.02-13.36,0-2.65.84-6.62,4.8-10.57.32-.36.65-.69.99-1.01v-29.18c0-2.1,1.19-4.02,3.06-4.96,1.88-.94,4.13-.74,5.81.51,9.92,7.39,37.71,14.85,77.45,14.85s67.49-7.46,77.46-14.85c1.69-1.25,3.93-1.44,5.81-.5,1.87.94,3.05,2.86,3.05,4.96v29.22c.26.24.52.47.77.7,3.39,3.48,5.01,7.05,5.01,10.82,0,4.85-2.69,9.34-8,13.34-13.99,10.38-46.99,17.07-84.11,17.07ZM760.69,1587.8v22.35c0,1.81-.88,3.5-2.36,4.54-.46.33-1.11.81-1.48,1.23-.1.12-.22.24-.34.36-.73.72-1.61,1.78-1.61,2.78,0,1.14,1.33,2.81,3.54,4.45,9.92,7.4,37.72,14.85,77.46,14.85s67.49-7.46,77.46-14.85c2.6-1.97,3.54-3.59,3.54-4.45,0-.78-.56-1.75-1.66-2.88-.45-.41-1.15-1.02-1.9-1.58-1.4-1.05-2.22-2.69-2.22-4.44v-22.36c-16.62,7.44-44.51,12.02-75.21,12.02s-58.62-4.57-75.21-12.01Z"/><path class="cls-6" d="M835.9,1599.81c-37.18,0-70.19-6.69-84.08-17.05-6.62-4.82-8.02-9.93-8.02-13.37,0-2.68.84-6.66,4.82-10.54.3-.34.62-.67.97-.99v-29.22c0-2.1,1.19-4.03,3.07-4.97,1.88-.94,4.13-.73,5.81.52,9.85,7.39,37.62,14.84,77.44,14.84s67.54-7.46,77.45-14.85c1.69-1.26,3.93-1.45,5.81-.51,1.88.94,3.06,2.86,3.06,4.96v29.24c.31.29.63.58.93.89,3.23,3.22,4.86,6.8,4.86,10.62,0,3.39-1.4,8.46-8.04,13.38-13.95,10.35-46.95,17.03-84.07,17.03ZM760.69,1538.15v22.34c0,1.81-.88,3.5-2.36,4.54-.63.44-1.13.87-1.48,1.29-.12.14-.25.28-.39.41-.71.67-1.56,1.68-1.56,2.67,0,.9.92,2.54,3.5,4.42,9.97,7.43,37.76,14.88,77.5,14.88s67.49-7.46,77.46-14.85c2.61-1.93,3.54-3.56,3.54-4.45,0-.77-.54-1.71-1.61-2.77-.61-.61-1.26-1.17-1.96-1.7-1.4-1.05-2.22-2.69-2.22-4.44v-22.34c-16.59,7.43-44.47,12.01-75.21,12.01s-58.65-4.57-75.21-12Z"/><path class="cls-6" d="M835.91,1401.15c-36.29,0-67.97-6.12-82.68-15.97-.33-.21-.76-.51-1.15-.79-.08-.05-.15-.11-.22-.16-.03-.03-.07-.05-.1-.07-5.3-3.99-7.99-8.51-7.99-13.43,0-3.78,1.67-7.41,4.82-10.53.31-.34.63-.67.95-.97v-11.71h11.11v14.33c0,1.72-.8,3.35-2.16,4.4-.63.48-1.34,1.03-1.66,1.41-.11.13-.23.25-.35.37-1.01.98-1.59,1.97-1.59,2.7,0,1.14,1.25,2.78,3.35,4.41.15.1.29.2.42.31.26.18.46.32.67.46,12.67,8.48,43.42,14.15,76.59,14.15,39.73,0,67.52-7.43,77.43-14.79,2.18-1.68,3.53-3.4,3.53-4.54,0-.71-.53-1.65-1.49-2.66-.73-.64-1.5-1.3-2.3-1.96-1.26-1.06-1.99-2.61-1.99-4.26v-14.33h11.11v11.76c.21.18.43.37.64.55.11.1.22.2.32.3,3.98,4.05,4.82,8,4.82,10.59,0,4.84-2.67,9.35-7.94,13.4-13.96,10.37-46.95,17.03-84.12,17.03Z"/><path class="cls-6" d="M835.9,1450.83c-37.23,0-70.23-6.67-84.08-16.99-6.63-4.93-8.02-10.02-8.02-13.42,0-3.82,1.67-7.47,4.83-10.54.31-.35.64-.67.96-.98v-29.18c0-2.1,1.19-4.02,3.06-4.96,1.88-.94,4.13-.74,5.81.51,9.88,7.36,37.65,14.79,77.45,14.79s67.53-7.43,77.46-14.8c1.68-1.25,3.93-1.45,5.8-.5,1.88.94,3.06,2.86,3.06,4.96v29.22c.26.23.52.47.77.7,4.17,4.16,5.01,8.14,5.01,10.77,0,3.36-1.39,8.41-8,13.4-13.94,10.34-46.95,17.01-84.11,17.01ZM760.69,1389.21v22.3c0,1.73-.81,3.36-2.18,4.41-.65.49-1.31,1.01-1.66,1.42-.12.14-.25.28-.39.41-.99.94-1.56,1.91-1.56,2.67,0,.91.93,2.57,3.55,4.51,9.88,7.37,37.66,14.79,77.45,14.79s67.53-7.43,77.46-14.8c2.6-1.96,3.54-3.62,3.54-4.51,0-.75-.57-1.74-1.61-2.77-.56-.51-1.32-1.17-2.13-1.83-1.3-1.06-2.05-2.64-2.05-4.31v-22.31c-16.6,7.41-44.48,11.97-75.21,11.97s-58.64-4.56-75.21-11.96Z"/><path class="cls-6" d="M835.9,1500.49c-37.27,0-70.28-6.7-84.1-17.06-6.6-4.8-8.01-9.92-8.01-13.35,0-3.82,1.67-7.46,4.82-10.53.3-.34.62-.67.97-.99v-29.16c0-2.1,1.19-4.02,3.06-4.96,1.88-.94,4.13-.74,5.81.51,9.88,7.36,37.65,14.79,77.45,14.79s67.53-7.43,77.46-14.8c1.69-1.25,3.93-1.45,5.81-.5,1.87.94,3.05,2.86,3.05,4.96v29.21c.23.21.45.42.67.62,4.27,4.25,5.12,8.23,5.12,10.86,0,3.39-1.4,8.47-8.04,13.38-13.85,10.34-46.86,17.03-84.07,17.03ZM760.69,1438.87v22.3c0,1.81-.88,3.5-2.36,4.54-.63.44-1.13.87-1.48,1.29-.12.14-.25.28-.39.41-.99.94-1.56,1.91-1.56,2.66,0,.91.92,2.55,3.5,4.42,9.91,7.43,37.68,14.89,77.5,14.89s67.55-7.46,77.45-14.85c2.63-1.94,3.56-3.58,3.56-4.46,0-.75-.57-1.73-1.61-2.77-.58-.53-1.24-1.16-1.96-1.7-1.4-1.05-2.22-2.69-2.22-4.44v-22.31c-16.6,7.41-44.48,11.97-75.21,11.97s-58.64-4.56-75.21-11.96Z"/><path class="cls-6" d="M835.9,1550.15c-37.26,0-70.27-6.7-84.09-17.06-6.61-4.8-8.01-9.92-8.01-13.35,0-3.82,1.67-7.46,4.82-10.53.3-.34.62-.67.97-.99v-29.22c0-2.1,1.19-4.03,3.07-4.97,1.88-.94,4.14-.73,5.82.52,9.84,7.39,37.61,14.84,77.43,14.84s67.55-7.46,77.45-14.85c1.69-1.26,3.94-1.45,5.81-.51,1.88.94,3.07,2.86,3.07,4.96v29.27c.27.24.53.48.78.72,4.16,4.15,5,8.13,5,10.76,0,3.39-1.4,8.47-8.04,13.38-13.85,10.34-46.86,17.03-84.07,17.03ZM760.69,1488.49v22.33c0,1.8-.87,3.49-2.35,4.53-.63.45-1.14.89-1.49,1.3-.12.14-.25.28-.39.41-.99.94-1.56,1.91-1.56,2.66,0,.91.92,2.55,3.5,4.42,9.92,7.43,37.68,14.89,77.5,14.89s67.54-7.46,77.45-14.85c2.63-1.94,3.56-3.58,3.56-4.46,0-.75-.57-1.73-1.61-2.77-.52-.48-1.22-1.15-1.97-1.71-1.39-1.05-2.21-2.69-2.21-4.44v-22.34c-16.58,7.43-44.47,12.01-75.21,12.01s-58.65-4.57-75.21-11.99Z"/><path class="cls-7" d="M531.14,362.79v176.09h-10.35c-17.67,0-32.02-14.35-32.02-32.02v-112.05c0-17.67,14.35-32.02,32.02-32.02h10.35Z"/><path class="cls-7" d="M1140.61,362.79h10.35c17.67,0,32.02,14.35,32.02,32.02v112.05c0,17.67-14.35,32.02-32.02,32.02h-10.35"/><path class="cls-7" d="M1328.73,1327.24c-2.44,10.79-8.16,20.23-12.83,30.06-4.6,8.83-9.15,17.67-14.39,26.26l-16.23-6.16c3.12-17.91,8.71-35.26,13.07-52.77,2.12-13.23-5.6-26.86-18.07-31.5-12.39-4.84-27.18.24-34.46,11.51-3.96,6.88-7.12,14.75-10.87,21.83-4.6,8.83-9.15,17.71-14.43,26.26l-16.19-6.16c1.8-9.91,4.28-19.55,6.72-29.18,3.04-10.47,5.04-21.31,10.39-30.98,9.59-17.39,28.54-28.02,48.05-28.86,7.76-.36,15.59.8,22.95,3.72,6.76,2.48,12.83,6.28,18.03,10.99,15.03,13.55,22.83,34.86,18.27,54.97Z"/><path class="cls-3" d="M1356.11,1096.82l-.48,8.4-1,8.28c-1.76,15.79-4.64,33.38-8.07,48.73-8.67,38.46-21.35,74.91-36.1,110.05-5.2-4.72-11.27-8.51-18.03-10.99-7.36-2.92-15.19-4.08-22.95-3.72,13.15-51.05,21.31-101.66,18.87-153.83-.44-4.16-1.52-16.19-1.92-20.59-2-12.75-4.36-26.86-8.32-39.06-10.55-37.18-32.78-67.72-62.16-88.23v-118.73c73.47,36.94,126.72,107.29,137.79,190.92,3.4,22.11,3.88,46.41,2.36,68.76Z"/><path class="cls-7" d="M1215.96,835.42v123.84c0,18.91-14.51,34.5-32.98,36.22v-196.28c18.47,1.72,32.98,17.31,32.98,36.22Z"/><path class="cls-3" d="M455.79,837.14v118.73c-29.38,20.51-51.61,51.05-62.16,88.23-3.96,12.19-6.32,26.3-8.31,39.06-.4,4.4-1.48,16.43-1.92,20.59-2.44,52.17,5.72,102.78,18.87,153.83-7.76-.36-15.59.8-22.95,3.72-6.76,2.48-12.83,6.28-18.03,10.99-14.75-35.14-27.42-71.6-36.1-110.05-3.44-15.35-6.32-32.94-8.07-48.73l-1-8.28-.48-8.4c-1.52-22.35-1.04-46.65,2.36-68.76,11.07-83.63,64.32-153.99,137.8-190.92Z"/><path class="cls-7" d="M488.77,799.2v196.28c-18.47-1.72-32.98-17.31-32.98-36.22v-123.84c0-18.91,14.51-34.5,32.98-36.22Z"/><path class="cls-7" d="M467.42,1346.59l-16.19,6.16c-5.28-8.55-9.83-17.43-14.43-26.26-3.76-7.08-6.92-14.95-10.87-21.83-7.28-11.27-22.07-16.35-34.46-11.51-12.47,4.64-20.19,18.27-18.07,31.5,4.36,17.51,9.95,34.86,13.07,52.77l-16.23,6.16c-5.24-8.59-9.79-17.43-14.39-26.26-4.68-9.83-10.39-19.27-12.83-30.06-4.56-20.11,3.24-41.41,18.27-54.97,5.2-4.72,11.27-8.51,18.03-10.99,7.36-2.92,15.19-4.08,22.95-3.72,19.51.84,38.46,11.47,48.05,28.86,5.36,9.67,7.36,20.51,10.39,30.98,2.44,9.63,4.92,19.27,6.72,29.18Z"/><rect class="cls-7" x="741.21" y="668.92" width="189.32" height="45.61"/><path class="cls-6" d="M930.53,720.09h-189.32c-3.07,0-5.55-2.49-5.55-5.55v-45.61c0-3.07,2.49-5.55,5.55-5.55h189.32c3.07,0,5.55,2.49,5.55,5.55v45.61c0,3.07-2.49,5.55-5.55,5.55ZM746.76,708.98h178.22v-34.51h-178.22v34.51Z"/><path class="cls-8" d="M874.45,876.23h-77.15c-12.71,0-23.03,10.31-23.03,23.07v152.55c0,12.71,10.31,23.03,23.03,23.03h77.39c12.59-.12,22.79-10.39,22.79-23.03v-152.55c0-12.75-10.31-23.07-23.03-23.07Z"/><path class="cls-3" d="M1116.66,714.53h-561.57c-36.62,0-66.32,29.7-66.32,66.32v280.79c0,122.88,63.88,230.86,160.26,292.54,35.82,22.91,76.11,39.46,119.33,47.93,21.83,4.36,44.41,6.6,67.52,6.6s45.69-2.24,67.52-6.6c43.21-8.47,83.51-25.02,119.33-47.93,96.38-61.68,160.26-169.66,160.26-292.54v-280.79c0-36.62-29.7-66.32-66.32-66.32Z"/><path class="cls-5" d="M1022.72,1268.11c-35.82,22.91-76.11,39.46-119.33,47.93-21.83,4.36-44.41,6.6-67.52,6.6s-45.69-2.24-67.52-6.6c-43.21-8.47-83.51-25.02-119.33-47.93-96.38-61.68-160.26-169.66-160.26-292.54v86.07c0,122.88,63.88,230.86,160.26,292.54,35.82,22.91,76.11,39.46,119.33,47.93,21.83,4.36,44.41,6.6,67.52,6.6s45.69-2.24,67.52-6.6c43.21-8.47,83.51-25.02,119.33-47.93,96.38-61.68,160.26-169.66,160.26-292.54v-86.07c0,122.88-63.88,230.86-160.26,292.54Z"/><path class="cls-8" d="M897.47,1051.85c0,12.63-10.19,22.91-22.79,23.03h-77.39c-12.71,0-23.03-10.31-23.03-23.03v-152.55c0-12.75,10.31-23.07,23.03-23.07h77.15c12.71,0,23.03,10.31,23.03,23.07v152.55Z"/><path class="cls-7" d="M897.47,899.3v152.55c0,12.63-10.19,22.91-22.79,23.03h-77.39c-12.71,0-23.03-10.31-23.03-23.03v-152.55c0-12.75,10.31-23.07,23.03-23.07h77.15c12.71,0,23.03,10.31,23.03,23.07Z"/><circle class="cls-9" cx="813.79" cy="1020.91" r="22.09"/><circle class="cls-9" cx="813.79" cy="930.21" r="22.09"/><rect class="cls-9" x="699.65" y="424.65" width="88.19" height="88.19" rx="4.9" ry="4.9"/><rect class="cls-9" x="883.91" y="424.65" width="88.19" height="88.19" rx="4.9" ry="4.9"/><path class="cls-6" d="M531.14,544.44h-10.35c-20.72,0-37.57-16.86-37.57-37.58v-112.05c0-20.72,16.85-37.58,37.57-37.58h10.35c3.07,0,5.55,2.49,5.55,5.55v176.09c0,3.07-2.49,5.55-5.55,5.55ZM520.79,368.34c-14.59,0-26.47,11.88-26.47,26.47v112.05c0,14.59,11.87,26.47,26.47,26.47h4.8v-164.99h-4.8Z"/><path class="cls-6" d="M595.66,538.88h-11.11v-148.27c0-18.4,14.97-33.38,33.37-33.38h435.89v11.11h-435.89c-12.28,0-22.27,9.99-22.27,22.27v148.27Z"/><path class="cls-6" d="M1150.96,544.44h-10.35v-11.11h10.35c14.59,0,26.47-11.88,26.47-26.47v-112.05c0-14.59-11.87-26.47-26.47-26.47h-10.35v-11.11h10.35c20.72,0,37.57,16.86,37.57,37.58v112.05c0,20.72-16.85,37.58-37.57,37.58Z"/><path class="cls-6" d="M1301.5,1389.12c-.66,0-1.32-.12-1.97-.36l-16.23-6.16c-2.49-.94-3.95-3.52-3.5-6.14,2.14-12.31,5.44-24.41,8.64-36.11,1.53-5.6,3.05-11.2,4.46-16.8,1.61-10.7-4.62-21.5-14.56-25.19-9.97-3.9-21.92.12-27.86,9.32-1.97,3.44-3.85,7.43-5.83,11.65-1.53,3.24-3.1,6.58-4.79,9.77l-.86,1.66c-4.28,8.23-8.7,16.74-13.75,24.92-1.4,2.27-4.21,3.22-6.7,2.28l-16.19-6.16c-2.5-.95-3.97-3.55-3.49-6.18,1.75-9.65,4.14-19.09,6.46-28.22l.34-1.33c.76-2.61,1.4-5.06,2.05-7.51,2.18-8.26,4.44-16.8,8.87-24.8,10.27-18.61,30.45-30.76,52.67-31.72,8.85-.4,17.33.97,25.23,4.1,7.14,2.62,13.82,6.69,19.72,12.05,16.95,15.28,24.79,38.96,19.95,60.3-2.01,8.89-5.98,16.75-9.83,24.35-1.16,2.28-2.31,4.57-3.41,6.88l-.82,1.58c-4.32,8.3-8.78,16.88-13.84,25.18-1.03,1.7-2.85,2.66-4.74,2.66ZM1291.59,1373.86l7.53,2.86c3.94-6.78,7.58-13.77,11.12-20.58l.73-1.41c1.05-2.21,2.24-4.57,3.43-6.94,3.7-7.32,7.2-14.24,8.91-21.79h0c3.96-17.49-2.55-36.97-16.57-49.62-4.85-4.4-10.3-7.73-16.22-9.91-6.56-2.6-13.5-3.74-20.77-3.38-18.4.79-35.04,10.75-43.45,26-3.76,6.8-5.75,14.31-7.86,22.27-.67,2.53-1.34,5.06-2.07,7.58l-.29,1.15c-1.9,7.49-3.85,15.2-5.43,22.95l7.49,2.85c3.9-6.66,7.49-13.57,10.99-20.29l.88-1.7c1.59-3,3.04-6.08,4.58-9.34,1.99-4.23,4.06-8.61,6.41-12.7,8.89-13.78,26.57-19.66,41.29-13.91,14.79,5.49,24.08,21.65,21.53,37.55-.03.16-.06.31-.09.46-1.44,5.77-3.01,11.52-4.58,17.29-2.73,10-5.54,20.3-7.57,30.59Z"/><path class="cls-6" d="M1310.46,1277.82c-1.37,0-2.7-.51-3.73-1.44-4.83-4.39-10.28-7.72-16.21-9.89-6.57-2.6-13.52-3.73-20.77-3.38-1.76.07-3.45-.67-4.57-2.04-1.11-1.37-1.51-3.18-1.07-4.89,14.9-57.86,20.84-106.21,18.7-152.18-.34-3.18-1.17-12.25-1.66-17.68l-.24-2.66c-1.98-12.58-4.28-26.19-8.07-37.85-10.09-35.53-30.84-64.99-60.06-85.38-1.49-1.04-2.38-2.74-2.38-4.55v-118.73c0-1.93,1-3.72,2.64-4.73,1.64-1.01,3.68-1.11,5.41-.23,77.12,38.77,129.76,111.72,140.81,195.15,3.24,21.04,4.07,45.22,2.39,69.83l-.47,8.37-1.03,8.63c-1.79,16.12-4.77,34.1-8.17,49.27-7.97,35.34-19.88,71.64-36.4,110.99-.7,1.66-2.16,2.88-3.92,3.27-.4.09-.8.13-1.2.13ZM1276.6,1252.09c6.21.42,12.19,1.77,17.88,4.02,4.8,1.76,9.4,4.18,13.68,7.2,14.81-36.13,25.62-69.67,32.98-102.32,3.3-14.79,6.21-32.33,7.97-48.12l1.01-8.33.44-8.04s0-.04,0-.06c1.62-23.82.82-47.18-2.31-67.54-10.19-76.96-57.31-144.54-126.76-182.58v106.68c30.1,21.8,51.49,52.71,61.95,89.57,3.97,12.23,6.36,26.33,8.46,39.71l.29,3.02c.49,5.39,1.31,14.38,1.67,17.85,2.14,45.58-3.36,92.98-17.28,148.94Z"/><path class="cls-6" d="M1182.98,1001.03c-1.38,0-2.71-.51-3.74-1.45-1.15-1.05-1.81-2.54-1.81-4.1v-196.28c0-1.56.66-3.05,1.81-4.1,1.16-1.05,2.7-1.59,4.25-1.42,21.68,2.02,38.02,19.97,38.02,41.75v123.84c0,21.78-16.34,39.73-38.02,41.75-.17.02-.34.03-.51.03ZM1188.53,805.93v182.82c12.66-3.89,21.87-15.84,21.87-29.49v-123.84c0-13.65-9.22-25.59-21.87-29.49Z"/><path class="cls-6" d="M361.29,1277.82c-.4,0-.8-.04-1.2-.13-1.76-.39-3.22-1.61-3.92-3.27-16.52-39.35-28.43-75.65-36.4-110.98-3.39-15.15-6.37-33.13-8.18-49.34l-.99-8.22-.51-8.75c-1.67-24.56-.84-48.76,2.42-69.92,11.03-83.32,63.67-156.27,140.79-195.04,1.72-.88,3.77-.78,5.41.23,1.64,1.01,2.64,2.8,2.64,4.73v118.73c0,1.81-.89,3.51-2.38,4.55-29.22,20.39-49.97,49.85-60,85.19-3.85,11.86-6.14,25.46-8.17,38.4l-.22,2.54c-.5,5.46-1.3,14.32-1.67,17.77-2.12,45.64,3.82,94,18.72,151.85.44,1.71.04,3.52-1.07,4.89-1.12,1.37-2.82,2.11-4.57,2.04-7.25-.35-14.21.78-20.64,3.33-6.06,2.22-11.51,5.55-16.34,9.94-1.03.94-2.37,1.44-3.73,1.44ZM450.23,846.32c-69.44,38.04-116.56,105.62-126.74,182.47-3.15,20.48-3.94,43.83-2.32,67.65l.48,8.46.97,7.92c1.77,15.88,4.67,33.42,7.98,48.19,7.36,32.64,18.17,66.18,32.98,102.31,4.3-3.03,8.92-5.46,13.82-7.26,5.59-2.22,11.55-3.55,17.74-3.98-13.91-55.96-19.42-103.34-17.3-148.61.39-3.75,1.18-12.52,1.67-17.93l.26-2.9c2.14-13.73,4.53-27.83,8.56-40.26,10.4-36.67,31.79-67.58,61.89-89.38v-106.68Z"/><path class="cls-6" d="M488.77,1001.03c-.17,0-.34,0-.51-.03-21.68-2.02-38.02-19.97-38.02-41.75v-123.84c0-21.78,16.34-39.73,38.02-41.75,1.55-.16,3.1.37,4.25,1.42,1.15,1.05,1.81,2.54,1.81,4.1v196.28c0,1.56-.66,3.05-1.81,4.1-1.03.94-2.36,1.45-3.74,1.45ZM483.21,805.93c-12.66,3.89-21.87,15.84-21.87,29.49v123.84c0,13.65,9.22,25.59,21.87,29.49v-182.82Z"/><path class="cls-6" d="M370.24,1389.12c-1.89,0-3.71-.97-4.74-2.66-5.06-8.3-9.52-16.88-13.84-25.18l-.73-1.41c-1.19-2.48-2.34-4.77-3.5-7.05-3.84-7.6-7.82-15.46-9.83-24.35-4.84-21.34,3-45.02,19.97-60.32,5.89-5.34,12.56-9.41,19.84-12.08,7.77-3.08,16.25-4.49,25.12-4.05,22.2.95,42.38,13.11,52.65,31.73,4.42,7.99,6.68,16.53,8.86,24.79.65,2.45,1.29,4.89,2,7.32l.45,1.76c2.29,9.05,4.66,18.42,6.39,27.97.48,2.63-.99,5.23-3.49,6.18l-16.19,6.16c-2.48.95-5.3,0-6.7-2.28-5.04-8.18-9.47-16.69-13.75-24.92l-.89-1.7c-1.67-3.15-3.25-6.5-4.77-9.73-1.98-4.22-3.86-8.2-5.98-11.89-5.79-8.96-17.74-12.98-27.63-9.11-10.02,3.72-16.25,14.53-14.64,25.23,1.4,5.61,2.93,11.2,4.46,16.8,3.19,11.71,6.5,23.81,8.64,36.11.46,2.62-1.01,5.2-3.5,6.14l-16.23,6.16c-.64.25-1.31.36-1.97.36ZM399.49,1263.05c-6.37,0-12.45,1.14-18.13,3.39-6.06,2.22-11.51,5.55-16.34,9.94-14.04,12.66-20.55,32.14-16.59,49.63,1.71,7.55,5.21,14.47,8.91,21.79,1.2,2.36,2.39,4.73,3.52,7.11l.64,1.23c3.54,6.8,7.18,13.8,11.12,20.58l7.53-2.86c-2.04-10.3-4.84-20.6-7.57-30.59-1.57-5.76-3.14-11.52-4.58-17.29-.04-.15-.07-.31-.09-.46-2.55-15.9,6.75-32.06,21.62-37.58,14.63-5.7,32.32.16,41.06,13.7,2.5,4.33,4.56,8.71,6.55,12.94,1.54,3.26,2.99,6.34,4.56,9.3l.9,1.74c3.5,6.72,7.09,13.63,10.99,20.29l7.49-2.85c-1.56-7.66-3.49-15.29-5.36-22.71l-.4-1.58c-.68-2.33-1.35-4.86-2.02-7.4-2.1-7.96-4.09-15.47-7.85-22.26-8.42-15.25-25.06-25.22-43.43-26-.85-.04-1.69-.06-2.53-.06Z"/><path class="cls-6" d="M595.66,538.88h-11.11v-148.27c0-18.4,14.97-33.38,33.37-33.38v11.11c-12.28,0-22.27,9.99-22.27,22.27v148.27Z"/><path class="cls-6" d="M1074.29,674.47h-476.83c-39.63,0-71.87-32.24-71.87-71.87v-63.72h11.11v63.72c0,33.51,27.26,60.77,60.77,60.77h476.83c33.51,0,60.77-27.26,60.77-60.77v-303.57c0-33.51-27.26-60.77-60.77-60.77h-476.83c-33.51,0-60.77,27.26-60.77,60.77v63.76h-11.11v-63.76c0-39.63,32.24-71.87,71.87-71.87h476.83c39.63,0,71.87,32.24,71.87,71.87v303.57c0,39.63-32.24,71.87-71.87,71.87Z"/><rect class="cls-6" x="741.21" y="596.93" width="189.32" height="11.11"/><path class="cls-6" d="M797.3,1080.42c-15.76,0-28.58-12.82-28.58-28.58v-152.55c0-15.78,12.82-28.62,28.58-28.62h77.15c15.76,0,28.58,12.84,28.58,28.62v152.55c0,15.61-12.69,28.43-28.28,28.58h-77.45ZM797.3,881.79c-9.63,0-17.47,7.86-17.47,17.51v152.55c0,9.63,7.84,17.47,17.47,17.47h77.39c9.48-.09,17.23-7.93,17.23-17.47v-152.55c0-9.66-7.84-17.51-17.47-17.51h-77.15Z"/><path class="cls-6" d="M835.87,1414.26c-23.24,0-46.32-2.26-68.61-6.7-43.14-8.46-83.93-24.85-121.23-48.7-101.95-65.24-162.82-176.35-162.82-297.22v-280.79c0-39.63,32.24-71.87,71.87-71.87h561.57c39.63,0,71.87,32.24,71.87,71.87v280.79c0,120.86-60.87,231.97-162.82,297.22-37.3,23.85-78.09,40.24-121.25,48.7-22.27,4.44-45.35,6.7-68.59,6.7ZM555.09,720.09c-33.51,0-60.77,27.26-60.77,60.77v280.79c0,117.06,58.95,224.67,157.7,287.86,36.12,23.1,75.62,38.96,117.4,47.16,43.16,8.61,89.75,8.61,132.88,0,41.8-8.2,81.3-24.07,117.42-47.17,98.75-63.19,157.7-170.8,157.7-287.86v-280.79c0-33.51-27.26-60.77-60.77-60.77h-561.57Z"/><path class="cls-6" d="M797.3,1080.42c-15.76,0-28.58-12.82-28.58-28.58v-152.55c0-15.78,12.82-28.62,28.58-28.62h77.15c15.76,0,28.58,12.84,28.58,28.62v152.55c0,15.61-12.69,28.43-28.28,28.58h-77.45ZM797.3,881.79c-9.63,0-17.47,7.86-17.47,17.51v152.55c0,9.63,7.84,17.47,17.47,17.47h77.39c9.48-.09,17.23-7.93,17.23-17.47v-152.55c0-9.66-7.84-17.51-17.47-17.51h-77.15Z"/><path class="cls-6" d="M797.3,1080.42c-15.76,0-28.58-12.82-28.58-28.58v-152.55c0-15.78,12.82-28.62,28.58-28.62h77.15c15.76,0,28.58,12.84,28.58,28.62v152.55c0,15.61-12.69,28.43-28.28,28.58h-77.45ZM797.3,881.79c-9.63,0-17.47,7.86-17.47,17.51v152.55c0,9.63,7.84,17.47,17.47,17.47h77.39c9.48-.09,17.23-7.93,17.23-17.47v-152.55c0-9.66-7.84-17.51-17.47-17.51h-77.15Z"/><path class="cls-6" d="M813.78,1048.55c-15.24,0-27.64-12.4-27.64-27.64s12.4-27.64,27.64-27.64,27.64,12.4,27.64,27.64-12.4,27.64-27.64,27.64ZM813.78,1004.37c-9.12,0-16.53,7.41-16.53,16.53s7.41,16.54,16.53,16.54,16.54-7.42,16.54-16.54-7.42-16.53-16.54-16.53Z"/><path class="cls-6" d="M813.78,957.85c-15.24,0-27.64-12.4-27.64-27.64s12.4-27.64,27.64-27.64,27.64,12.4,27.64,27.64-12.4,27.64-27.64,27.64ZM813.78,913.68c-9.12,0-16.53,7.42-16.53,16.54s7.41,16.53,16.53,16.53,16.54-7.41,16.54-16.53-7.42-16.54-16.54-16.54Z"/><path class="cls-6" d="M876.75,1074.87h-11.11v-91.75h-11.12c-3.07,0-5.55-2.49-5.55-5.55v-101.34h11.11v95.79h11.12c3.07,0,5.55,2.49,5.55,5.55v97.3Z"/><path class="cls-6" d="M1053.82,608.04h-435.89c-18.4,0-33.37-14.97-33.37-33.37v-184.05c0-18.4,14.97-33.38,33.37-33.38h435.89c18.4,0,33.37,14.97,33.37,33.38v184.05c0,18.4-14.97,33.37-33.37,33.37ZM617.93,368.34c-12.28,0-22.27,9.99-22.27,22.27v184.05c0,12.28,9.99,22.27,22.27,22.27h435.89c12.28,0,22.27-9.99,22.27-22.27v-184.05c0-12.28-9.99-22.27-22.27-22.27h-435.89Z"/><path class="cls-6" d="M769.69,518.39h-51.89c-13.07,0-23.7-10.63-23.7-23.7v-51.89c0-13.06,10.63-23.7,23.7-23.7h51.89c13.07,0,23.7,10.63,23.7,23.7v51.89c0,13.07-10.63,23.7-23.7,23.7ZM717.8,430.21c-6.94,0-12.6,5.65-12.6,12.59v51.89c0,6.94,5.65,12.59,12.6,12.59h51.89c6.94,0,12.6-5.65,12.6-12.59v-51.89c0-6.94-5.65-12.59-12.6-12.59h-51.89Z"/><path class="cls-6" d="M953.95,518.39h-51.9c-13.06,0-23.7-10.63-23.7-23.7v-51.89c0-13.06,10.63-23.7,23.7-23.7h51.9c13.06,0,23.7,10.63,23.7,23.7v51.89c0,13.07-10.63,23.7-23.7,23.7ZM902.05,430.21c-6.94,0-12.59,5.65-12.59,12.59v51.89c0,6.94,5.65,12.59,12.59,12.59h51.9c6.94,0,12.59-5.65,12.59-12.59v-51.89c0-6.94-5.65-12.59-12.59-12.59h-51.9Z"/><rect class="cls-6" x="420.31" y="864.2" width="11.11" height="105.07" transform="translate(-260.58 174.74) rotate(-17.86)"/><rect class="cls-6" x="383.97" y="908.37" width="11.11" height="95" transform="translate(-481.93 402.71) rotate(-35.42)"/><rect class="cls-6" x="354.29" y="973.97" width="11.11" height="86.39" transform="translate(-660.01 665.04) rotate(-51.47)"/><rect class="cls-6" x="343.56" y="1060.16" width="11.1" height="72.49" transform="translate(-800.75 1054.13) rotate(-70.23)"/><rect class="cls-6" x="350.84" y="1141.32" width="11.1" height="58.93" transform="translate(-825.23 1489.43) rotate(-88.16)"/><rect class="cls-6" x="346.49" y="1225.19" width="48.8" height="11.11" transform="translate(-259.5 110.52) rotate(-12.6)"/><rect class="cls-6" x="1193.54" y="911.18" width="105.07" height="11.11" transform="translate(-8.59 1821.69) rotate(-72.14)"/><rect class="cls-6" x="1234.91" y="950.32" width="95" height="11.11" transform="translate(-239.69 1447.26) rotate(-54.59)"/><rect class="cls-6" x="1268.9" y="1011.61" width="86.39" height="11.11" transform="translate(-347.95 1038.63) rotate(-38.52)"/><rect class="cls-6" x="1286.58" y="1090.85" width="72.49" height="11.1" transform="translate(-292.75 511.7) rotate(-19.76)"/><rect class="cls-6" x="1286.08" y="1165.24" width="58.93" height="11.1" transform="translate(-36.68 42.57) rotate(-1.83)"/><rect class="cls-6" x="1295.5" y="1206.34" width="11.11" height="48.8" transform="translate(-183.49 2232.53) rotate(-77.42)"/></g></svg>